# xmcd
#
# Track frame offsets:
#	150
#	16672
#	35645
#	48882
#	62495
#	81940
#	100482
#	110155
#	131362
#	151782
#	169407
#	187797
#	199127
#	215615
#	233012
#	252642
#
# Disc length: 3623 seconds
#
# Revision: 0
# Processed by: cddbd v1.4PL0 Copyright (c) Steve Scherf et al.
# Submitted via: audiograbber 1.80
#
DISCID=d60e2510
DTITLE=Enrico Caruso - Complete Recordings Vol.12
DYEAR=1900
DGENRE=
TTITLE0=Sante Maria
TTITLE1=Santa Lucia
TTITLE2=Come un bel di di maggio
TTITLE3=Pourquoi?
TTITLE4=Chanson de juin
TTITLE5=Pour moi ce jour est tout mystere
TTITLE6=De mon amie, fleur endormie
TTITLE7=Je crois entendre encore
TTITLE8=Vois ma misere, helas
TTITLE9=Bella figlia dell'amore
TTITLE10=Chi mi frena in tal momento?
TTITLE11=L'alba separa dalla luce l'omba
TTITLE12=M'Appari tutt'amor
TTITLE13=Music probita
TTITLE14=Uocchie celeste
TTITLE15=Oh! lumiere du jour
EXTD=
EXTT0=
EXTT1=
EXTT2=
EXTT3=
EXTT4=
EXTT5=
EXTT6=
EXTT7=
EXTT8=
EXTT9=
EXTT10=
EXTT11=
EXTT12=
EXTT13=
EXTT14=
EXTT15=
PLAYORDER=
